<svg class="svg svg-instagram" viewBox="0 0 20 20" xmlns="http://www.w3.org/2000/svg" aria-labelledby="instagram_title" aria-describedby="instagram_desc" fill="#b4a76c"><path d="M17.433 0H2.567A2.578 2.578 0 0 0-.001 2.56v14.88A2.571 2.571 0 0 0 2.567 20h14.866a2.571 2.571 0 0 0 2.568-2.56V2.57A2.58 2.58 0 0 0 17.433 0zm-3.15 3.14a.764.764 0 0 1 .76-.76h1.816a.764.764 0 0 1 .76.76v1.82a.765.765 0 0 1-.76.76h-1.816a.758.758 0 0 1-.76-.76V3.14zM10 5.72A4.285 4.285 0 1 1 5.717 10 4.284 4.284 0 0 1 10 5.72zm8.109 11.59a.8.8 0 0 1-.794.79H2.7a.8.8 0 0 1-.794-.79V8.57h2.061A6.024 6.024 0 0 0 3.798 10a6.209 6.209 0 1 0 12.24-1.43h2.077l-.008 8.74z" fill-rule="evenodd"/></svg>