<svg xmlns="http://www.w3.org/2000/svg" class="svg svg-logo-usa" viewBox="0 0 151.9 63.1"><path fill="#c00" d="M0 0h151.9v63.1H0z"/><path d="M131 48.3a6.6 6.6 0 1 1 6.6 6.4 6.55 6.55 0 0 1-6.6-6.4" fill="#FFF"/><ellipse cx="137.6" cy="48.3" rx="6.6" ry="6.4" fill="#FFF"/><path fill="#FFF" d="M132 9h11.8v29.5H132zM68 14.6c1.2 1.5 1.7 4.2 1.7 6.6l-.1 19.3c-.2 5-3.1 10.5-7.7 12.2-4.6 2.1-11.8 1.8-15.8-1.3a13.65 13.65 0 0 1-5.5-10.6V19.3c.3-3.1 1.9-6.3 4.5-7.8a12.76 12.76 0 0 1 6.2-2.1c4.8-.5 13.2-.5 16.7 5.2m-11.2 5.3a2.53 2.53 0 0 0-2.5-.4 2.18 2.18 0 0 0-1.4 1.8v19a2 2 0 0 0 1.5 1.7 3.65 3.65 0 0 0 1.8 0 2 2 0 0 0 1.2-1.9V21.4a1.75 1.75 0 0 0-.6-1.5M121.8 9.2c.3.1 7.1 44.3 7.1 44.5h-11.2l-1.2-6.6H108l-1.3 6.6H95.2s8.5-44.4 8.4-44.5c-.1.1 18.2 0 18.2 0m-7.2 28.2s-2.5-12.7-2.5-12.8 0-.2-2.6 12.8h5.1M86.3 42.2h7.2v11.6H74.2V9.3h12c.1 0 .1 32.9.1 32.9M20 25.2h4.8V9.4h11.7v44.4H24.8l.1-17.4h-4.7l-.1 17.4h-12V9.4H20v15.8z"/></svg>